<svg width="469" height="472" viewBox="0 0 469 472" fill="none" xmlns="http://www.w3.org/2000/svg">
<g clip-path="url(#clip0_10223_8225)">
<rect width="468.658" height="471.496" transform="translate(0.148926)" fill="#CEECF3"/>
<path d="M554.419 346.716C561.104 327.794 564.177 308.476 563.992 289.504C541.251 353.825 480.176 400.192 407.953 400.882C315.65 401.766 240.11 327.701 239.226 235.472C208.487 322.451 254.12 417.861 341.161 448.579C428.202 479.297 523.68 433.695 554.419 346.716Z" fill="#E5FAFF"/>
<path d="M552.23 118.238C545.183 99.4501 535.105 82.6734 522.762 68.261C546.724 132.145 529.758 206.9 474.872 253.814C404.729 313.777 299.224 305.565 239.218 235.472C271.616 321.846 367.952 365.621 454.378 333.246C540.813 300.871 584.62 204.603 552.222 118.238H552.23Z" fill="#E5FAFF"/>
<path d="M403.592 -55.3931C386.104 -65.2622 367.598 -71.6397 348.873 -74.7527C408.315 -41.2078 443.408 26.9589 431.545 98.146C416.381 189.139 330.283 250.617 239.226 235.464C319.607 280.821 421.559 252.476 466.94 172.152C512.33 91.8274 483.965 -10.0524 403.583 -55.4015L403.592 -55.3931Z" fill="#E5FAFF"/>
<path d="M178.041 -92.9178C158.297 -89.241 140.019 -82.241 123.676 -72.599C190.788 -85.0847 261.512 -55.4101 298.221 6.74928C345.135 86.1901 318.723 188.592 239.226 235.472C329.971 218.586 389.842 131.388 372.944 40.7064C356.047 -49.9749 268.787 -109.804 178.041 -92.9178Z" fill="#E5FAFF"/>
<path d="M-18.8822 23.2144C-31.6462 38.7122 -41.1434 55.8169 -47.458 73.7041C-4.07224 21.0268 69.1944 -1.66453 137.291 22.373C224.332 53.0909 269.966 148.501 239.227 235.48C297.885 164.259 287.656 59.0057 216.376 0.388375C145.105 -58.2289 39.7766 -48.0064 -18.8822 23.2228V23.2144Z" fill="#E5FAFF"/>
<path d="M-95.0368 238.669C-94.8431 258.735 -91.1133 277.943 -84.4534 295.704C-85.1017 227.487 -43.5767 163.039 24.0573 137.706C110.492 105.331 206.82 149.106 239.218 235.48C238.334 143.242 162.794 69.1859 70.4909 70.0693C-21.8038 70.9444 -95.9124 146.431 -95.0368 238.669Z" fill="#E5FAFF"/>
<path d="M-14.7737 452.626C-1.71504 467.871 13.4906 480.189 30.0181 489.519C-14.3612 437.675 -24.0015 361.633 11.512 298.792C56.9016 218.468 158.854 190.131 239.226 235.48C179.22 165.387 73.7154 157.175 3.57242 217.139C-66.5706 277.102 -74.788 382.533 -14.7821 452.626H-14.7737Z" fill="#E5FAFF"/>
<path d="M184.331 564.972C204.142 568.27 223.717 567.934 242.375 564.459C175.036 553.252 118.734 501.197 105.516 430.237C88.6178 339.556 148.489 252.358 239.235 235.472C148.177 220.319 62.0795 281.805 46.916 372.789C31.7524 463.782 93.2822 549.819 184.331 564.972Z" fill="#E5FAFF"/>
<path d="M409.124 523.148C426.418 512.951 441.194 500.12 453.259 485.472C394.466 520.145 317.848 516.426 262.077 470.563C190.806 411.946 180.576 306.692 239.227 235.472C159.729 282.352 133.317 384.753 180.231 464.194C227.145 543.635 329.618 570.029 409.116 523.148H409.124Z" fill="#E5FAFF"/>
</g>
<defs>
<clipPath id="clip0_10223_8225">
<rect width="468.658" height="471.496" fill="white" transform="translate(0.148926)"/>
</clipPath>
</defs>
</svg>
